<mxfile host="app.diagrams.net" agent="Mozilla/5.0 (Windows NT 10.0; Win64; x64; rv:133.0) Gecko/20100101 Firefox/133.0" version="25.0.1">
  <diagram name="Page-1" id="BnbvyaOT_vO8Rth5V9e3">
    <mxGraphModel dx="2284" dy="782" grid="1" gridSize="10" guides="1" tooltips="1" connect="1" arrows="1" fold="1" page="1" pageScale="1" pageWidth="850" pageHeight="1100" math="0" shadow="0">
      <root>
        <mxCell id="0" />
        <mxCell id="1" parent="0" />
        <mxCell id="dBGmrAgM-QVq-BA463TX-1" value="Some losses set us free." style="text;html=1;align=center;verticalAlign=middle;resizable=0;points=[];autosize=1;strokeColor=none;fillColor=none;" parent="1" vertex="1">
          <mxGeometry x="190" y="610" width="160" height="30" as="geometry" />
        </mxCell>
        <mxCell id="dBGmrAgM-QVq-BA463TX-2" value="Pain makes your worth weigh in gold" style="text;html=1;align=center;verticalAlign=middle;resizable=0;points=[];autosize=1;strokeColor=none;fillColor=none;" parent="1" vertex="1">
          <mxGeometry x="160" y="550" width="220" height="30" as="geometry" />
        </mxCell>
        <mxCell id="dBGmrAgM-QVq-BA463TX-3" value="Is there anything so undoing than a ________?" style="text;html=1;align=center;verticalAlign=middle;resizable=0;points=[];autosize=1;strokeColor=none;fillColor=none;" parent="1" vertex="1">
          <mxGeometry x="320" y="440" width="280" height="30" as="geometry" />
        </mxCell>
        <mxCell id="dBGmrAgM-QVq-BA463TX-4" value="People overestimate what they can do in a day, and underestimate what they can do in a year." style="text;html=1;align=center;verticalAlign=middle;resizable=0;points=[];autosize=1;strokeColor=none;fillColor=none;" parent="1" vertex="1">
          <mxGeometry x="205" y="290" width="520" height="30" as="geometry" />
        </mxCell>
        <mxCell id="dBGmrAgM-QVq-BA463TX-5" value="With every right, comes responsibility." style="text;html=1;align=center;verticalAlign=middle;resizable=0;points=[];autosize=1;strokeColor=none;fillColor=none;" parent="1" vertex="1">
          <mxGeometry x="345" y="380" width="230" height="30" as="geometry" />
        </mxCell>
        <mxCell id="dBGmrAgM-QVq-BA463TX-6" value="Are you doing it to facilitate growth, or to become famous?" style="text;html=1;align=center;verticalAlign=middle;resizable=0;points=[];autosize=1;strokeColor=none;fillColor=none;" parent="1" vertex="1">
          <mxGeometry x="290" y="410" width="340" height="30" as="geometry" />
        </mxCell>
        <mxCell id="lUODGQ_9CcD3UOm_i-vy-1" value="Obstacles are opportunities." style="text;html=1;align=center;verticalAlign=middle;resizable=0;points=[];autosize=1;strokeColor=none;fillColor=none;" parent="1" vertex="1">
          <mxGeometry x="375" y="350" width="170" height="30" as="geometry" />
        </mxCell>
        <mxCell id="lUODGQ_9CcD3UOm_i-vy-2" value="Luck is preparation meeting opportunity" style="text;html=1;align=center;verticalAlign=middle;resizable=0;points=[];autosize=1;strokeColor=none;fillColor=none;" parent="1" vertex="1">
          <mxGeometry x="345" y="320" width="230" height="30" as="geometry" />
        </mxCell>
        <mxCell id="lUODGQ_9CcD3UOm_i-vy-4" value="Action over word." style="text;html=1;align=center;verticalAlign=middle;resizable=0;points=[];autosize=1;strokeColor=none;fillColor=none;" parent="1" vertex="1">
          <mxGeometry x="130" y="440" width="120" height="30" as="geometry" />
        </mxCell>
        <mxCell id="lUODGQ_9CcD3UOm_i-vy-5" value="If there&#39;s a need for change, it&#39;ll happen. If not, there&#39;ll be excuses." style="text;html=1;align=center;verticalAlign=middle;resizable=0;points=[];autosize=1;strokeColor=none;fillColor=none;" parent="1" vertex="1">
          <mxGeometry x="10" y="50" width="380" height="30" as="geometry" />
        </mxCell>
        <mxCell id="lUODGQ_9CcD3UOm_i-vy-6" value="The truth can be harmful." style="text;html=1;align=center;verticalAlign=middle;resizable=0;points=[];autosize=1;strokeColor=none;fillColor=none;" parent="1" vertex="1">
          <mxGeometry x="-40" y="440" width="160" height="30" as="geometry" />
        </mxCell>
        <mxCell id="lUODGQ_9CcD3UOm_i-vy-9" value="The only thing guaranteed in this life is death." style="text;html=1;align=center;verticalAlign=middle;resizable=0;points=[];autosize=1;strokeColor=none;fillColor=none;" parent="1" vertex="1">
          <mxGeometry x="630" y="440" width="270" height="30" as="geometry" />
        </mxCell>
        <mxCell id="lUODGQ_9CcD3UOm_i-vy-10" value="" style="endArrow=classic;html=1;rounded=0;exitX=0.518;exitY=0.947;exitDx=0;exitDy=0;exitPerimeter=0;" parent="1" source="dBGmrAgM-QVq-BA463TX-3" target="lUODGQ_9CcD3UOm_i-vy-11" edge="1">
          <mxGeometry width="50" height="50" relative="1" as="geometry">
            <mxPoint x="450" y="350" as="sourcePoint" />
            <mxPoint x="470" y="590" as="targetPoint" />
          </mxGeometry>
        </mxCell>
        <mxCell id="lUODGQ_9CcD3UOm_i-vy-11" value="The longer the wait, the more truth reveals itself." style="text;html=1;align=center;verticalAlign=middle;whiteSpace=wrap;rounded=0;" parent="1" vertex="1">
          <mxGeometry x="315" y="680" width="300" height="30" as="geometry" />
        </mxCell>
        <mxCell id="lUODGQ_9CcD3UOm_i-vy-12" value="In zombies, he had put easter eggs not in the form of data mining. It&#39;s an easter egg on culture." style="text;html=1;align=center;verticalAlign=middle;resizable=0;points=[];autosize=1;strokeColor=none;fillColor=none;" parent="1" vertex="1">
          <mxGeometry x="-40" y="70" width="530" height="30" as="geometry" />
        </mxCell>
        <mxCell id="lUODGQ_9CcD3UOm_i-vy-14" value="&lt;div&gt;I used to be fearless, but then I met reasons to think otherwise.&lt;br&gt;&lt;/div&gt;&lt;div&gt;&lt;br&gt;&lt;/div&gt;" style="text;html=1;align=center;verticalAlign=middle;resizable=0;points=[];autosize=1;strokeColor=none;fillColor=none;" parent="1" vertex="1">
          <mxGeometry x="15" y="90" width="370" height="40" as="geometry" />
        </mxCell>
        <mxCell id="1xzJ9CbN2i8jtsQfj5fC-8" value="Whatever goes around comes around." style="text;html=1;align=center;verticalAlign=middle;resizable=0;points=[];autosize=1;strokeColor=none;fillColor=none;" vertex="1" parent="1">
          <mxGeometry x="540" y="550" width="230" height="30" as="geometry" />
        </mxCell>
        <mxCell id="1xzJ9CbN2i8jtsQfj5fC-10" value="" style="endArrow=classic;html=1;rounded=0;exitX=0.01;exitY=1.033;exitDx=0;exitDy=0;exitPerimeter=0;entryX=0.505;entryY=0;entryDx=0;entryDy=0;entryPerimeter=0;" edge="1" parent="1" source="dBGmrAgM-QVq-BA463TX-3" target="dBGmrAgM-QVq-BA463TX-2">
          <mxGeometry relative="1" as="geometry">
            <mxPoint x="330" y="500" as="sourcePoint" />
            <mxPoint x="430" y="500" as="targetPoint" />
          </mxGeometry>
        </mxCell>
        <mxCell id="1xzJ9CbN2i8jtsQfj5fC-11" value="&lt;div&gt;Loss&lt;/div&gt;" style="edgeLabel;resizable=0;html=1;;align=center;verticalAlign=middle;" connectable="0" vertex="1" parent="1xzJ9CbN2i8jtsQfj5fC-10">
          <mxGeometry relative="1" as="geometry" />
        </mxCell>
        <mxCell id="1xzJ9CbN2i8jtsQfj5fC-12" value="" style="endArrow=classic;html=1;rounded=0;exitX=0.976;exitY=1;exitDx=0;exitDy=0;exitPerimeter=0;entryX=0.474;entryY=0.133;entryDx=0;entryDy=0;entryPerimeter=0;" edge="1" parent="1" source="dBGmrAgM-QVq-BA463TX-3" target="1xzJ9CbN2i8jtsQfj5fC-8">
          <mxGeometry relative="1" as="geometry">
            <mxPoint x="530" y="490" as="sourcePoint" />
            <mxPoint x="630" y="490" as="targetPoint" />
          </mxGeometry>
        </mxCell>
        <mxCell id="1xzJ9CbN2i8jtsQfj5fC-13" value="Gain" style="edgeLabel;resizable=0;html=1;;align=center;verticalAlign=middle;" connectable="0" vertex="1" parent="1xzJ9CbN2i8jtsQfj5fC-12">
          <mxGeometry relative="1" as="geometry" />
        </mxCell>
      </root>
    </mxGraphModel>
  </diagram>
</mxfile>
